# Blender v2.78 (sub 0) OBJ File: 'Level.blend'
# www.blender.org
mtllib Block.mtl
o Cube.002_Cube.016
v 0.289992 -0.289992 -0.312562
v 0.289992 0.289992 -0.312562
v 0.289992 -0.289992 0.312563
v 0.289992 0.289992 0.312563
v -0.289992 -0.289992 -0.312562
v -0.289992 0.289992 -0.312562
v -0.289992 -0.289992 0.312562
v -0.289992 0.289992 0.312562
v 0.289992 -0.289992 0.000000
v 0.312997 0.000000 -0.312997
v 0.289992 0.289992 0.000000
v 0.312997 0.000000 0.312998
v -0.000000 -0.312997 0.312998
v -0.000000 0.312997 0.312998
v -0.312997 0.000000 0.312997
v -0.289992 -0.289992 0.000000
v -0.289992 0.289992 0.000000
v -0.312997 0.000000 -0.312997
v 0.000000 -0.312997 -0.312997
v 0.000000 0.312997 -0.312997
v 0.000000 0.312997 0.000000
v 0.000000 -0.312997 0.000000
v 0.000000 0.000000 -0.312997
v -0.312997 0.000000 0.000000
v -0.000000 0.000000 0.312998
v 0.312997 0.000000 0.000000
v 0.289992 -0.289992 -0.156281
v 0.312997 0.258694 -0.312997
v 0.289992 0.289992 0.156281
v 0.312997 -0.258693 0.312998
v 0.252820 -0.312997 0.312998
v -0.252820 0.312997 0.312997
v -0.312997 -0.258693 0.312997
v -0.289992 -0.289992 0.156281
v -0.289992 0.289992 -0.156281
v -0.312997 -0.258693 -0.312997
v -0.252820 -0.312997 -0.312997
v 0.252820 0.312997 -0.312997
v 0.289992 -0.289992 0.156281
v 0.312997 -0.258693 -0.312997
v 0.289992 0.289992 -0.156281
v 0.312997 0.258694 0.312998
v -0.252820 -0.312997 0.312997
v 0.252820 0.312997 0.312998
v -0.312997 0.258694 0.312997
v -0.289992 -0.289992 -0.156281
v -0.289992 0.289992 0.156281
v -0.312997 0.258694 -0.312997
v 0.252820 -0.312997 -0.312997
v -0.252820 0.312997 -0.312997
v 0.000000 0.312997 -0.156498
v -0.000000 0.312997 0.156499
v -0.252820 0.312997 0.000000
v 0.252820 0.312997 0.000000
v 0.000000 -0.312997 -0.156498
v -0.000000 -0.312997 0.156499
v 0.252820 -0.312997 0.000000
v -0.252820 -0.312997 0.000000
v 0.156499 0.000000 -0.312997
v -0.156498 0.000000 -0.312997
v 0.000000 -0.156499 -0.312997
v 0.000000 0.156499 -0.312997
v -0.312997 0.000000 -0.156498
v -0.312997 0.000000 0.156499
v -0.312997 -0.258693 0.000000
v -0.312997 0.258694 0.000000
v -0.156499 0.000000 0.312997
v 0.156499 0.000000 0.312998
v -0.000000 -0.156499 0.312998
v -0.000000 0.156499 0.312998
v 0.312997 0.000000 0.156499
v 0.312997 0.000000 -0.156498
v 0.312997 -0.258693 0.000000
v 0.312997 0.258694 0.000000
v 0.312997 0.258694 -0.156498
v 0.312997 -0.258693 -0.156498
v 0.312997 -0.258693 0.156499
v 0.156499 0.156499 0.312998
v 0.156499 -0.156499 0.312998
v -0.156499 -0.156499 0.312997
v -0.312997 0.258694 0.156499
v -0.312997 -0.258693 0.156499
v -0.312997 -0.258693 -0.156498
v -0.156498 0.156499 -0.312997
v -0.156498 -0.156499 -0.312997
v 0.156499 -0.156499 -0.312997
v -0.252820 -0.312997 0.156499
v 0.252820 -0.312997 0.156499
v 0.252820 -0.312997 -0.156498
v 0.252820 0.312997 0.156499
v -0.252820 0.312997 0.156499
v -0.252820 0.312997 -0.156498
v 0.252820 0.312997 -0.156498
v -0.252820 -0.312997 -0.156498
v 0.156499 0.156499 -0.312997
v -0.312997 0.258694 -0.156498
v -0.156499 0.156499 0.312997
v 0.312997 0.258694 0.156499
vt 0.7479 0.0841
vt 0.7490 0.0034
vt 0.9978 0.0034
vt 0.9971 0.0841
vt 0.2457 0.7487
vt 0.0919 0.9986
vt 0.0325 0.9619
vt -0.0042 0.9119
vt 0.2482 0.9144
vt 0.2486 1.0009
vt -0.0002 1.0009
vt -0.0009 0.9144
vt 0.2491 0.7508
vt 0.0956 1.0002
vt 0.0364 0.9636
vt -0.0003 0.9137
vt 0.2517 0.9022
vt 0.2521 0.9994
vt 0.0027 0.9994
vt 0.0020 0.9022
vt 0.8929 0.7506
vt 0.9931 0.7503
vt 0.9931 0.9997
vt 0.8929 1.0004
vt 0.0858 0.7506
vt 0.4894 0.7506
vt 0.4894 1.0004
vt 0.0858 1.0004
vt 0.0858 0.2510
vt 0.4894 0.2510
vt 0.4894 0.5008
vt 0.0858 0.5008
vt 0.8929 0.2510
vt 0.9931 0.2514
vt 0.9931 0.5008
vt 0.8929 0.5008
vt 0.2517 0.0954
vt 0.2517 0.4988
vt 0.0020 0.4988
vt 0.0020 0.0954
vt 0.7511 0.0954
vt 0.7511 0.4988
vt 0.5014 0.4988
vt 0.5014 0.0954
vt 0.7511 0.9022
vt 0.7508 0.9994
vt 0.5014 0.9994
vt 0.5014 0.9022
vt 0.2491 0.2520
vt 0.2491 0.5014
vt -0.0003 0.5014
vt -0.0003 0.0892
vt 0.7479 0.2520
vt 0.7479 0.5014
vt 0.4985 0.5014
vt 0.4985 0.2520
vt 0.7479 0.7508
vt 0.9014 1.0002
vt 0.4985 1.0002
vt 0.4985 0.7508
vt 0.2482 0.0909
vt 0.2482 0.5026
vt -0.0009 0.5026
vt -0.0009 0.0909
vt 0.7464 0.0909
vt 0.7464 0.5026
vt 0.4973 0.5026
vt 0.4973 0.0909
vt 0.7464 0.9144
vt 0.7461 1.0009
vt 0.4973 1.0009
vt 0.4973 0.9144
vt 0.2457 0.2489
vt 0.2457 0.4988
vt -0.0042 0.4988
vt -0.0042 0.0857
vt 0.7455 0.2489
vt 0.7455 0.4988
vt 0.4956 0.4988
vt 0.4956 0.2489
vt 0.7455 0.7487
vt 0.8993 0.9986
vt 0.4956 0.9986
vt 0.4956 0.7487
vt 0.7479 0.9078
vt 0.7479 0.4960
vt 0.9971 0.4960
vt 0.9971 0.9078
vt 0.2496 0.9078
vt 0.2496 0.4960
vt 0.4988 0.4960
vt 0.4988 0.9078
vt 0.2496 0.0841
vt 0.2514 0.0034
vt 0.5002 0.0034
vt 0.4988 0.0841
vt 0.0005 0.4960
vt 0.0004 0.0841
vt 0.0026 0.0034
vt 0.2514 0.9957
vt 0.5002 0.9957
vt 0.0026 0.9957
vt 0.0005 0.9078
vt 0.7490 0.9957
vt 0.9978 0.9957
vt 0.9954 0.4988
vt 0.9954 0.9119
vt 0.9587 0.9619
vt 0.8993 -0.0010
vt 0.4956 -0.0010
vt 0.9587 0.0357
vt 0.9954 0.0857
vt 0.0919 -0.0010
vt 0.0325 0.0357
vt 0.9955 0.5026
vt 0.9955 0.9144
vt 0.9949 1.0009
vt 0.7475 0.0058
vt 0.4988 0.0058
vt 0.9963 0.0058
vt 0.9955 0.0909
vt 0.2500 0.0058
vt 0.0012 0.0058
vt 0.9973 0.5014
vt 0.9973 0.9137
vt 0.9607 0.9636
vt 0.9014 0.0026
vt 0.4985 0.0026
vt 0.9607 0.0393
vt 0.9973 0.0892
vt 0.0956 0.0026
vt 0.0364 0.0393
vt 1.0008 0.4988
vt 1.0008 0.9022
vt 1.0001 0.9994
vt 0.7508 0.0039
vt 0.5014 0.0039
vt 1.0001 0.0039
vt 1.0008 0.0954
vt 0.2521 0.0039
vt 0.0027 0.0039
vt 0.4894 0.0012
vt 0.8929 0.0012
vt 0.9931 0.0019
vt -0.0014 0.2514
vt -0.0014 0.5008
vt -0.0014 0.0019
vt 0.0858 0.0012
vt -0.0014 0.7503
vt -0.0014 0.9997
vn 0.8058 0.5922 0.0000
vn -0.0015 0.0017 1.0000
vn -0.8058 0.5922 -0.0000
vn 0.0015 0.0017 -1.0000
vn -0.5262 -0.8503 -0.0000
vn 0.5262 0.8503 0.0000
vn 0.0000 1.0000 0.0000
vn 0.0000 -1.0000 0.0000
vn 0.0000 0.0000 -1.0000
vn -1.0000 0.0000 -0.0000
vn -0.0000 0.0000 1.0000
vn 1.0000 0.0000 0.0000
vn 0.8058 -0.5922 0.0000
vn 0.0015 0.0017 1.0000
vn 0.0015 -0.0017 1.0000
vn -0.0015 -0.0017 1.0000
vn -0.8058 -0.5922 -0.0000
vn -0.0015 0.0017 -1.0000
vn -0.0015 -0.0017 -1.0000
vn 0.0015 -0.0017 -1.0000
vn 0.5262 -0.8503 0.0000
vn -0.5262 0.8503 -0.0000
usemtl Block
s off
f 98/1/1 29/2/1 4/3/1 42/4/1
f 97/5/2 32/6/2 8/7/2 45/8/2
f 96/9/3 35/10/3 6/11/3 48/12/3
f 95/13/4 38/14/4 2/15/4 28/16/4
f 94/17/5 46/18/5 5/19/5 37/20/5
f 93/21/6 41/22/6 2/23/6 38/24/6
f 92/25/7 51/26/7 20/27/7 50/28/7
f 91/29/7 52/30/7 21/31/7 53/32/7
f 90/33/6 29/34/6 11/35/6 54/36/6
f 89/37/8 55/38/8 19/39/8 49/40/8
f 88/41/8 56/42/8 22/43/8 57/44/8
f 87/45/5 34/46/5 16/47/5 58/48/5
f 86/49/9 59/50/9 10/51/9 40/52/9
f 85/53/9 60/54/9 23/55/9 61/56/9
f 84/57/9 50/58/9 20/59/9 62/60/9
f 83/61/10 63/62/10 18/63/10 36/64/10
f 82/65/10 64/66/10 24/67/10 65/68/10
f 81/69/3 47/70/3 17/71/3 66/72/3
f 80/73/11 67/74/11 15/75/11 33/76/11
f 79/77/11 68/78/11 25/79/11 69/80/11
f 78/81/11 44/82/11 14/83/11 70/84/11
f 77/85/12 71/86/12 12/87/12 30/88/12
f 76/89/12 72/90/12 26/91/12 73/92/12
f 75/93/1 41/94/1 11/95/1 74/96/1
f 72/90/12 75/93/12 74/96/12 26/91/12
f 10/97/12 28/98/12 75/93/12 72/90/12
f 28/98/1 2/99/1 41/94/1 75/93/1
f 27/100/13 76/89/13 73/92/13 9/101/13
f 1/102/13 40/103/13 76/89/13 27/100/13
f 40/103/12 10/97/12 72/90/12 76/89/12
f 39/104/13 77/85/13 30/88/13 3/105/13
f 9/101/13 73/92/13 77/85/13 39/104/13
f 73/92/12 26/91/12 71/86/12 77/85/12
f 68/78/11 78/81/11 70/84/11 25/79/11
f 12/106/11 42/107/11 78/81/11 68/78/11
f 42/107/14 4/108/14 44/82/14 78/81/14
f 31/109/11 79/77/11 69/80/11 13/110/11
f 3/111/15 30/112/15 79/77/15 31/109/15
f 30/112/11 12/106/11 68/78/11 79/77/11
f 43/113/16 80/73/16 33/76/16 7/114/16
f 13/110/11 69/80/11 80/73/11 43/113/11
f 69/80/11 25/79/11 67/74/11 80/73/11
f 64/66/10 81/69/10 66/72/10 24/67/10
f 15/115/10 45/116/10 81/69/10 64/66/10
f 45/116/3 8/117/3 47/70/3 81/69/3
f 34/118/17 82/65/17 65/68/17 16/119/17
f 7/120/17 33/121/17 82/65/17 34/118/17
f 33/121/10 15/115/10 64/66/10 82/65/10
f 46/122/17 83/61/17 36/64/17 5/123/17
f 16/119/17 65/68/17 83/61/17 46/122/17
f 65/68/10 24/67/10 63/62/10 83/61/10
f 60/54/9 84/57/9 62/60/9 23/55/9
f 18/124/9 48/125/9 84/57/9 60/54/9
f 48/125/18 6/126/18 50/58/18 84/57/18
f 37/127/9 85/53/9 61/56/9 19/128/9
f 5/129/19 36/130/19 85/53/19 37/127/19
f 36/130/9 18/124/9 60/54/9 85/53/9
f 49/131/20 86/49/20 40/52/20 1/132/20
f 19/128/9 61/56/9 86/49/9 49/131/9
f 61/56/9 23/55/9 59/50/9 86/49/9
f 56/42/8 87/45/8 58/48/8 22/43/8
f 13/133/8 43/134/8 87/45/8 56/42/8
f 43/134/5 7/135/5 34/46/5 87/45/5
f 39/136/21 88/41/21 57/44/21 9/137/21
f 3/138/21 31/139/21 88/41/21 39/136/21
f 31/139/8 13/133/8 56/42/8 88/41/8
f 27/140/21 89/37/21 49/40/21 1/141/21
f 9/137/21 57/44/21 89/37/21 27/140/21
f 57/44/8 22/43/8 55/38/8 89/37/8
f 52/30/7 90/33/7 54/36/7 21/31/7
f 14/142/7 44/143/7 90/33/7 52/30/7
f 44/143/6 4/144/6 29/34/6 90/33/6
f 47/145/22 91/29/22 53/32/22 17/146/22
f 8/147/22 32/148/22 91/29/22 47/145/22
f 32/148/7 14/142/7 52/30/7 91/29/7
f 35/149/22 92/25/22 50/28/22 6/150/22
f 17/146/22 53/32/22 92/25/22 35/149/22
f 53/32/7 21/31/7 51/26/7 92/25/7
f 51/26/7 93/21/7 38/24/7 20/27/7
f 21/31/7 54/36/7 93/21/7 51/26/7
f 54/36/6 11/35/6 41/22/6 93/21/6
f 55/38/8 94/17/8 37/20/8 19/39/8
f 22/43/8 58/48/8 94/17/8 55/38/8
f 58/48/5 16/47/5 46/18/5 94/17/5
f 59/50/9 95/13/9 28/16/9 10/51/9
f 23/55/9 62/60/9 95/13/9 59/50/9
f 62/60/9 20/59/9 38/14/9 95/13/9
f 63/62/10 96/9/10 48/12/10 18/63/10
f 24/67/10 66/72/10 96/9/10 63/62/10
f 66/72/3 17/71/3 35/10/3 96/9/3
f 67/74/11 97/5/11 45/8/11 15/75/11
f 25/79/11 70/84/11 97/5/11 67/74/11
f 70/84/11 14/83/11 32/6/11 97/5/11
f 71/86/12 98/1/12 42/4/12 12/87/12
f 26/91/12 74/96/12 98/1/12 71/86/12
f 74/96/1 11/95/1 29/2/1 98/1/1
