# Blender v2.78 (sub 0) OBJ File: 'Level.blend'
# www.blender.org
mtllib Tube.mtl
o Cube.001_Cube.002
v 0.000002 0.262870 0.452168
v -0.088212 0.262870 0.443479
v 0.000002 -0.868588 0.452168
v 0.000002 0.252995 0.452168
v -0.088212 -0.868588 0.443479
v -0.088212 0.252995 0.443479
v -0.173035 -0.868588 0.417748
v -0.173035 0.252995 0.417748
v -0.251209 -0.868588 0.375963
v -0.251209 0.252995 0.375963
v -0.319729 -0.868588 0.319731
v -0.319729 0.252995 0.319731
v -0.375962 -0.868588 0.251211
v -0.375962 0.252995 0.251211
v -0.417746 -0.868588 0.173037
v -0.417746 0.252995 0.173037
v -0.443478 -0.868588 0.088213
v -0.443478 0.252995 0.088213
v -0.452165 -0.868588 -0.000000
v -0.452165 0.252995 -0.000000
v -0.443477 -0.868588 -0.088214
v -0.443477 0.252995 -0.088214
v -0.417746 -0.868588 -0.173037
v -0.417746 0.252995 -0.173037
v -0.375962 -0.868588 -0.251211
v -0.375962 0.252995 -0.251211
v -0.319729 -0.868588 -0.319731
v -0.319729 0.252995 -0.319731
v -0.251209 -0.868588 -0.375964
v -0.251209 0.252995 -0.375964
v -0.173035 -0.868588 -0.417748
v -0.173035 0.252995 -0.417748
v -0.088211 -0.868588 -0.443479
v -0.088211 0.252995 -0.443479
v 0.000002 -0.868588 -0.452168
v 0.000002 0.252995 -0.452168
v 0.088216 -0.868588 -0.443479
v 0.088216 0.252995 -0.443479
v 0.173039 -0.868588 -0.417748
v 0.173039 0.252995 -0.417748
v 0.251213 -0.868588 -0.375963
v 0.251213 0.252995 -0.375963
v 0.319733 -0.868588 -0.319730
v 0.319733 0.252995 -0.319730
v 0.375966 -0.868588 -0.251210
v 0.375966 0.252995 -0.251210
v 0.417751 -0.868588 -0.173037
v 0.417751 0.252995 -0.173037
v 0.443481 -0.868588 -0.088213
v 0.443481 0.252995 -0.088213
v 0.452170 -0.868588 0.000001
v 0.452170 0.252995 0.000001
v 0.443481 -0.868588 0.088214
v 0.443481 0.252995 0.088214
v 0.417750 -0.868588 0.173038
v 0.417750 0.252995 0.173038
v 0.375965 -0.868588 0.251211
v 0.375965 0.252995 0.251211
v 0.319732 -0.868588 0.319731
v 0.319732 0.252995 0.319731
v 0.251212 -0.868588 0.375964
v 0.251212 0.252995 0.375964
v 0.173038 -0.868588 0.417749
v 0.173038 0.252995 0.417749
v 0.088214 -0.868588 0.443479
v 0.088214 0.252995 0.443479
v -0.173035 0.262870 0.417748
v -0.251209 0.262870 0.375963
v -0.319729 0.262870 0.319731
v -0.375962 0.262870 0.251211
v -0.417746 0.262870 0.173037
v -0.443478 0.262870 0.088213
v -0.452165 0.262870 -0.000000
v -0.443477 0.262870 -0.088214
v -0.417746 0.262870 -0.173037
v -0.375962 0.262870 -0.251211
v -0.319729 0.262870 -0.319731
v -0.251209 0.262870 -0.375964
v -0.173035 0.262870 -0.417748
v -0.088211 0.262870 -0.443479
v 0.000002 0.262870 -0.452168
v 0.088216 0.262870 -0.443479
v 0.173039 0.262870 -0.417748
v 0.251213 0.262870 -0.375963
v 0.319733 0.262870 -0.319730
v 0.375966 0.262870 -0.251210
v 0.417751 0.262870 -0.173037
v 0.443481 0.262870 -0.088213
v 0.452170 0.262870 0.000001
v 0.443481 0.262870 0.088214
v 0.417750 0.262870 0.173038
v 0.375965 0.262870 0.251211
v 0.319732 0.262870 0.319731
v 0.251212 0.262870 0.375964
v 0.173038 0.262870 0.417749
v 0.088214 0.262870 0.443479
v 0.000002 0.262870 0.631973
v 0.123292 0.262870 0.619830
v 0.241847 0.262870 0.583868
v 0.351107 0.262870 0.525467
v 0.446874 0.262870 0.446873
v 0.525468 0.262870 0.351106
v 0.583869 0.262870 0.241847
v 0.619832 0.262870 0.123293
v 0.631976 0.262870 0.000001
v 0.619832 0.262870 -0.123291
v 0.583870 0.262870 -0.241845
v 0.525469 0.262870 -0.351105
v 0.446875 0.262870 -0.446872
v 0.351108 0.262870 -0.525466
v 0.241848 0.262870 -0.583867
v 0.123294 0.262870 -0.619830
v 0.000002 0.262870 -0.631973
v -0.123289 0.262870 -0.619830
v -0.241843 0.262870 -0.583867
v -0.351103 0.262870 -0.525467
v -0.446870 0.262870 -0.446873
v -0.525464 0.262870 -0.351106
v -0.583865 0.262870 -0.241846
v -0.619829 0.262870 -0.123292
v -0.631971 0.262870 -0.000000
v -0.619829 0.262870 0.123292
v -0.583865 0.262870 0.241845
v -0.525465 0.262870 0.351105
v -0.446871 0.262870 0.446872
v -0.351103 0.262870 0.525466
v -0.241844 0.262870 0.583867
v -0.123290 0.262870 0.619830
v 0.000002 0.480119 0.631973
v 0.123292 0.480119 0.619830
v 0.241847 0.480119 0.583868
v 0.351107 0.480119 0.525467
v 0.446874 0.480119 0.446873
v 0.525468 0.480119 0.351106
v 0.583869 0.480119 0.241847
v 0.619832 0.480119 0.123293
v 0.631976 0.480119 0.000001
v 0.619832 0.480119 -0.123291
v 0.583870 0.480119 -0.241845
v 0.525469 0.480119 -0.351105
v 0.446875 0.480119 -0.446872
v 0.351108 0.480119 -0.525466
v 0.241848 0.480119 -0.583867
v 0.123294 0.480119 -0.619830
v 0.000002 0.480119 -0.631973
v -0.123289 0.480119 -0.619830
v -0.241843 0.480119 -0.583867
v -0.351103 0.480119 -0.525467
v -0.446870 0.480119 -0.446873
v -0.525464 0.480119 -0.351106
v -0.583865 0.480119 -0.241846
v -0.619829 0.480119 -0.123292
v -0.631971 0.480119 -0.000000
v -0.619829 0.480119 0.123292
v -0.583865 0.480119 0.241845
v -0.525465 0.480119 0.351105
v -0.446871 0.480119 0.446872
v -0.351103 0.480119 0.525466
v -0.241844 0.480119 0.583867
v -0.123290 0.480119 0.619830
v 0.000002 0.480119 0.391907
v 0.076458 0.480119 0.384377
v 0.149978 0.480119 0.362076
v 0.217734 0.480119 0.325859
v 0.277122 0.480119 0.277121
v 0.325861 0.480119 0.217733
v 0.362077 0.480119 0.149977
v 0.384379 0.480119 0.076458
v 0.391910 0.480119 0.000001
v 0.384379 0.480119 -0.076457
v 0.362078 0.480119 -0.149976
v 0.325861 0.480119 -0.217732
v 0.277123 0.480119 -0.277120
v 0.217735 0.480119 -0.325859
v 0.149979 0.480119 -0.362075
v 0.076460 0.480119 -0.384377
v 0.000002 0.480119 -0.391907
v -0.076455 0.480119 -0.384377
v -0.149974 0.480119 -0.362075
v -0.217730 0.480119 -0.325859
v -0.277118 0.480119 -0.277121
v -0.325857 0.480119 -0.217732
v -0.362073 0.480119 -0.149977
v -0.384375 0.480119 -0.076457
v -0.391905 0.480119 -0.000000
v -0.384375 0.480119 0.076457
v -0.362073 0.480119 0.149976
v -0.325857 0.480119 0.217732
v -0.277118 0.480119 0.277120
v -0.217730 0.480119 0.325859
v -0.149975 0.480119 0.362075
v -0.076455 0.480119 0.384377
v 0.000002 -0.870386 0.391907
v 0.076458 -0.870386 0.384377
v 0.149978 -0.870386 0.362076
v 0.217734 -0.870386 0.325859
v 0.277122 -0.870386 0.277121
v 0.325861 -0.870386 0.217733
v 0.362077 -0.870386 0.149977
v 0.384379 -0.870386 0.076458
v 0.391910 -0.870386 0.000001
v 0.384379 -0.870386 -0.076457
v 0.362078 -0.870386 -0.149976
v 0.325861 -0.870386 -0.217732
v 0.277123 -0.870386 -0.277120
v 0.217735 -0.870386 -0.325859
v 0.149979 -0.870386 -0.362075
v 0.076460 -0.870386 -0.384377
v 0.000002 -0.870386 -0.391907
v -0.076455 -0.870386 -0.384377
v -0.149974 -0.870386 -0.362075
v -0.217730 -0.870386 -0.325859
v -0.277118 -0.870386 -0.277121
v -0.325857 -0.870386 -0.217732
v -0.362073 -0.870386 -0.149977
v -0.384375 -0.870386 -0.076457
v -0.391905 -0.870386 -0.000000
v -0.384375 -0.870386 0.076457
v -0.362073 -0.870386 0.149976
v -0.325857 -0.870386 0.217732
v -0.277118 -0.870386 0.277120
v -0.217730 -0.870386 0.325859
v -0.149975 -0.870386 0.362075
v -0.076455 -0.870386 0.384377
vn 0.0000 -1.0000 -0.0000
vn 0.0000 1.0000 0.0000
vn 0.0000 0.0000 -1.0000
vn -0.1951 0.0000 -0.9808
vn -0.1333 -0.7298 -0.6705
vn 0.0000 -0.7298 -0.6836
vn 0.0000 -0.6857 0.7279
vn 0.0000 0.0000 1.0000
vn -0.1951 0.0000 0.9808
vn -0.1420 -0.6857 0.7139
vn 1.0000 0.0000 0.0000
vn 0.9808 0.0000 -0.1951
vn 0.6705 -0.7298 -0.1333
vn 0.6836 -0.7298 0.0000
vn -0.3827 0.0000 0.9239
vn -0.2785 -0.6857 0.6725
vn -0.8314 0.0000 0.5556
vn -0.7071 0.0000 0.7071
vn -0.4834 -0.7298 0.4834
vn -0.5684 -0.7298 0.3798
vn -0.5556 0.0000 0.8314
vn -0.4044 -0.6857 0.6052
vn -0.5556 0.0000 -0.8314
vn -0.7071 0.0000 -0.7071
vn -0.4834 -0.7298 -0.4834
vn -0.3798 -0.7298 -0.5684
vn -0.5147 -0.6857 0.5147
vn 0.8314 0.0000 -0.5556
vn 0.7071 0.0000 -0.7071
vn 0.4834 -0.7298 -0.4834
vn 0.5684 -0.7298 -0.3798
vn -0.6052 -0.6857 0.4044
vn 0.5556 0.0000 0.8314
vn 0.7071 0.0000 0.7071
vn 0.4834 -0.7298 0.4834
vn 0.3798 -0.7298 0.5684
vn -0.9239 0.0000 0.3827
vn -0.6725 -0.6857 0.2785
vn 0.1951 0.0000 0.9808
vn 0.1333 -0.7298 0.6705
vn 0.0000 -0.7298 0.6836
vn -0.9808 0.0000 0.1951
vn -0.7139 -0.6857 0.1420
vn -0.1333 -0.7298 0.6705
vn -0.2616 -0.7298 0.6316
vn -1.0000 0.0000 0.0000
vn -0.7279 -0.6857 0.0000
vn -0.9239 0.0000 -0.3827
vn -0.9808 0.0000 -0.1951
vn -0.6705 -0.7298 -0.1334
vn -0.6316 -0.7298 -0.2616
vn -0.7139 -0.6857 -0.1420
vn 0.3827 0.0000 -0.9239
vn 0.1951 0.0000 -0.9808
vn 0.1333 -0.7298 -0.6705
vn 0.2616 -0.7298 -0.6316
vn -0.6725 -0.6857 -0.2785
vn 0.9239 0.0000 0.3827
vn 0.9808 0.0000 0.1951
vn 0.6705 -0.7298 0.1334
vn 0.6316 -0.7298 0.2616
vn -0.8314 0.0000 -0.5556
vn -0.6052 -0.6857 -0.4044
vn -0.6316 -0.7298 0.2616
vn -0.6705 -0.7298 0.1333
vn -0.5147 -0.6857 -0.5147
vn -0.3827 0.0000 -0.9239
vn -0.2616 -0.7298 -0.6316
vn -0.4044 -0.6857 -0.6052
vn 0.9239 0.0000 -0.3827
vn 0.6316 -0.7298 -0.2616
vn -0.2785 -0.6857 -0.6725
vn 0.3827 0.0000 0.9239
vn 0.2616 -0.7298 0.6316
vn -0.1420 -0.6857 -0.7139
vn -0.3798 -0.7298 0.5684
vn 0.0000 -0.6857 -0.7279
vn -0.5684 -0.7298 -0.3798
vn 0.1420 -0.6857 -0.7139
vn 0.5556 0.0000 -0.8314
vn 0.3798 -0.7298 -0.5684
vn 0.2785 -0.6857 -0.6725
vn 0.8314 0.0000 0.5556
vn 0.5684 -0.7298 0.3798
vn 0.4044 -0.6857 -0.6052
vn -0.6836 -0.7298 0.0000
vn 0.5147 -0.6857 -0.5147
vn 0.6052 -0.6857 -0.4044
vn 0.6725 -0.6857 -0.2785
vn 0.7139 -0.6857 -0.1420
vn 0.7279 -0.6857 0.0000
vn 0.7139 -0.6857 0.1420
vn 0.6725 -0.6857 0.2785
vn 0.6052 -0.6857 0.4044
vn 0.5147 -0.6857 0.5147
vn 0.4044 -0.6857 0.6052
vn -0.2785 0.6857 0.6725
vn -0.4044 0.6857 0.6052
vn 0.2785 -0.6857 0.6725
vn 0.1420 -0.6857 0.7139
vn -0.1420 0.6857 -0.7139
vn 0.0000 0.6857 -0.7279
vn 0.5147 0.6857 0.5147
vn 0.4044 0.6857 0.6052
vn -0.1420 0.6857 0.7139
vn -0.2785 0.6857 -0.6725
vn 0.6052 0.6857 0.4044
vn 0.0000 0.6857 0.7279
vn -0.4044 0.6857 -0.6052
vn 0.6725 0.6857 0.2785
vn -0.5147 0.6857 -0.5147
vn 0.7139 0.6857 0.1420
vn -0.6052 0.6857 -0.4044
vn 0.7279 0.6857 0.0000
vn -0.6725 0.6857 -0.2785
vn 0.7139 0.6857 -0.1420
vn -0.7139 0.6857 -0.1420
vn 0.6725 0.6857 -0.2785
vn -0.7279 0.6857 0.0000
vn 0.6052 0.6857 -0.4044
vn -0.7139 0.6857 0.1420
vn 0.5147 0.6857 -0.5147
vn -0.6725 0.6857 0.2785
vn 0.4044 0.6857 -0.6052
vn -0.6052 0.6857 0.4044
vn 0.2785 0.6857 -0.6725
vn 0.1420 0.6857 0.7139
vn -0.5147 0.6857 0.5147
vn 0.1420 0.6857 -0.7139
vn 0.2785 0.6857 0.6725
vn 0.6316 0.7298 0.2616
vn 0.6705 0.7298 0.1334
vn -0.6705 0.7298 0.1333
vn -0.6316 0.7298 0.2616
vn 0.6836 0.7298 0.0000
vn -0.5684 0.7298 0.3798
vn 0.6705 0.7298 -0.1334
vn -0.4834 0.7298 0.4834
vn 0.6316 0.7298 -0.2616
vn -0.3798 0.7298 0.5684
vn 0.5684 0.7298 -0.3798
vn -0.2616 0.7298 0.6316
vn 0.0000 0.7298 -0.6836
vn -0.1333 0.7298 -0.6705
vn 0.4834 0.7298 -0.4834
vn -0.1333 0.7298 0.6705
vn -0.2616 0.7298 -0.6316
vn 0.3798 0.7298 -0.5684
vn 0.0000 0.7298 0.6836
vn -0.3798 0.7298 -0.5684
vn 0.2616 0.7298 -0.6316
vn 0.1333 0.7298 0.6705
vn -0.4834 0.7298 -0.4834
vn 0.1333 0.7298 -0.6705
vn 0.2616 0.7298 0.6316
vn -0.5684 0.7298 -0.3798
vn 0.3798 0.7298 0.5684
vn -0.6316 0.7298 -0.2616
vn 0.4834 0.7298 0.4834
vn -0.6705 0.7298 -0.1334
vn 0.5684 0.7298 0.3798
vn -0.6836 0.7298 0.0000
usemtl Green
s off
f 89//1 88//1 106//1 105//1
f 70//1 69//1 125//1 124//1
f 73//1 72//1 122//1 121//1
f 92//1 91//1 103//1 102//1
f 84//1 83//1 111//1 110//1
f 76//1 75//1 119//1 118//1
f 68//1 67//1 127//1 126//1
f 95//1 94//1 100//1 99//1
f 87//1 86//1 108//1 107//1
f 79//1 78//1 116//1 115//1
f 71//1 70//1 124//1 123//1
f 90//1 89//1 105//1 104//1
f 82//1 81//1 113//1 112//1
f 74//1 73//1 121//1 120//1
f 2//1 1//1 97//1 128//1
f 93//1 92//1 102//1 101//1
f 85//1 84//1 110//1 109//1
f 77//1 76//1 118//1 117//1
f 69//1 68//1 126//1 125//1
f 88//1 87//1 107//1 106//1
f 80//1 79//1 115//1 114//1
f 72//1 71//1 123//1 122//1
f 96//1 95//1 99//1 98//1
f 91//1 90//1 104//1 103//1
f 1//1 96//1 98//1 97//1
f 83//1 82//1 112//1 111//1
f 75//1 74//1 120//1 119//1
f 67//1 2//1 128//1 127//1
f 94//1 93//1 101//1 100//1
f 86//1 85//1 109//1 108//1
f 81//1 80//1 114//1 113//1
f 78//1 77//1 117//1 116//1
f 148//2 149//2 181//2 180//2
f 135//2 136//2 168//2 167//2
f 149//2 150//2 182//2 181//2
f 136//2 137//2 169//2 168//2
f 150//2 151//2 183//2 182//2
f 137//2 138//2 170//2 169//2
f 151//2 152//2 184//2 183//2
f 138//2 139//2 171//2 170//2
f 152//2 153//2 185//2 184//2
f 139//2 140//2 172//2 171//2
f 153//2 154//2 186//2 185//2
f 140//2 141//2 173//2 172//2
f 154//2 155//2 187//2 186//2
f 141//2 142//2 174//2 173//2
f 155//2 156//2 188//2 187//2
f 142//2 143//2 175//2 174//2
f 129//2 130//2 162//2 161//2
f 156//2 157//2 189//2 188//2
f 143//2 144//2 176//2 175//2
f 130//2 131//2 163//2 162//2
f 157//2 158//2 190//2 189//2
f 144//2 145//2 177//2 176//2
f 131//2 132//2 164//2 163//2
f 158//2 159//2 191//2 190//2
f 145//2 146//2 178//2 177//2
f 132//2 133//2 165//2 164//2
f 159//2 160//2 192//2 191//2
f 146//2 147//2 179//2 178//2
f 133//2 134//2 166//2 165//2
f 160//2 129//2 161//2 192//2
f 147//2 148//2 180//2 179//2
f 134//2 135//2 167//2 166//2
s 1
f 36//3 34//4 80//5 81//6
f 3//7 4//8 6//9 5//10
f 52//11 50//12 88//13 89//14
f 5//10 6//9 8//15 7//16
f 14//17 12//18 69//19 70//20
f 7//16 8//15 10//21 9//22
f 30//23 28//24 77//25 78//26
f 9//22 10//21 12//18 11//27
f 46//28 44//29 85//30 86//31
f 11//27 12//18 14//17 13//32
f 62//33 60//34 93//35 94//36
f 13//32 14//17 16//37 15//38
f 4//8 66//39 96//40 1//41
f 15//38 16//37 18//42 17//43
f 8//15 6//9 2//44 67//45
f 17//43 18//42 20//46 19//47
f 24//48 22//49 74//50 75//51
f 19//47 20//46 22//49 21//52
f 40//53 38//54 82//55 83//56
f 21//52 22//49 24//48 23//57
f 56//58 54//59 90//60 91//61
f 23//57 24//48 26//62 25//63
f 18//42 16//37 71//64 72//65
f 25//63 26//62 28//24 27//66
f 34//4 32//67 79//68 80//5
f 27//66 28//24 30//23 29//69
f 50//12 48//70 87//71 88//13
f 29//69 30//23 32//67 31//72
f 66//39 64//73 95//74 96//40
f 31//72 32//67 34//4 33//75
f 12//18 10//21 68//76 69//19
f 33//75 34//4 36//3 35//77
f 28//24 26//62 76//78 77//25
f 35//77 36//3 38//54 37//79
f 44//29 42//80 84//81 85//30
f 37//79 38//54 40//53 39//82
f 60//34 58//83 92//84 93//35
f 39//82 40//53 42//80 41//85
f 22//49 20//46 73//86 74//50
f 41//85 42//80 44//29 43//87
f 38//54 36//3 81//6 82//55
f 43//87 44//29 46//28 45//88
f 54//59 52//11 89//14 90//60
f 45//88 46//28 48//70 47//89
f 6//9 4//8 1//41 2//44
f 47//89 48//70 50//12 49//90
f 16//37 14//17 70//20 71//64
f 49//90 50//12 52//11 51//91
f 32//67 30//23 78//26 79//68
f 51//91 52//11 54//59 53//92
f 48//70 46//28 86//31 87//71
f 53//92 54//59 56//58 55//93
f 64//73 62//33 94//36 95//74
f 55//93 56//58 58//83 57//94
f 10//21 8//15 67//45 68//76
f 57//94 58//83 60//34 59//95
f 26//62 24//48 75//51 76//78
f 59//95 60//34 62//33 61//96
f 126//22 127//16 159//97 158//98
f 42//80 40//53 83//56 84//81
f 61//96 62//33 64//73 63//99
f 58//83 56//58 91//61 92//84
f 63//99 64//73 66//39 65//100
f 20//46 18//42 72//65 73//86
f 65//100 66//39 4//8 3//7
f 3//7 5//10 7//16 9//22 11//27 13//32 15//38 17//43 19//47 21//52 23//57 25//63 27//66 29//69 31//72 33//75 35//77 37//79 39//82 41//85 43//87 45//88 47//89 49//90 51//91 53//92 55//93 57//94 59//95 61//96 63//99 65//100
f 113//77 114//75 146//101 145//102
f 100//96 101//95 133//103 132//104
f 127//16 128//10 160//105 159//97
f 114//75 115//72 147//106 146//101
f 101//95 102//94 134//107 133//103
f 128//10 97//7 129//108 160//105
f 115//72 116//69 148//109 147//106
f 102//94 103//93 135//110 134//107
f 116//69 117//66 149//111 148//109
f 103//93 104//92 136//112 135//110
f 117//66 118//63 150//113 149//111
f 104//92 105//91 137//114 136//112
f 118//63 119//57 151//115 150//113
f 105//91 106//90 138//116 137//114
f 119//57 120//52 152//117 151//115
f 106//90 107//89 139//118 138//116
f 120//52 121//47 153//119 152//117
f 107//89 108//88 140//120 139//118
f 121//47 122//43 154//121 153//119
f 108//88 109//87 141//122 140//120
f 122//43 123//38 155//123 154//121
f 109//87 110//85 142//124 141//122
f 123//38 124//32 156//125 155//123
f 110//85 111//82 143//126 142//124
f 97//7 98//100 130//127 129//108
f 124//32 125//27 157//128 156//125
f 111//82 112//79 144//129 143//126
f 98//100 99//99 131//130 130//127
f 125//27 126//22 158//98 157//128
f 112//79 113//77 145//102 144//129
f 99//99 100//96 132//104 131//130
f 183//131 184//132 216//112 215//110
f 224//129 193//102 194//101 195//106 196//109 197//111 198//113 199//115 200//117 201//119 202//121 203//123 204//125 205//128 206//98 207//97 208//105 209//108 210//127 211//130 212//104 213//103 214//107 215//110 216//112 217//114 218//116 219//118 220//120 221//122 222//124 223//126
f 170//133 171//134 203//123 202//121
f 184//132 185//135 217//114 216//112
f 171//134 172//136 204//125 203//123
f 185//135 186//137 218//116 217//114
f 172//136 173//138 205//128 204//125
f 186//137 187//139 219//118 218//116
f 173//138 174//140 206//98 205//128
f 187//139 188//141 220//120 219//118
f 174//140 175//142 207//97 206//98
f 161//143 162//144 194//101 193//102
f 188//141 189//145 221//122 220//120
f 175//142 176//146 208//105 207//97
f 162//144 163//147 195//106 194//101
f 189//145 190//148 222//124 221//122
f 176//146 177//149 209//108 208//105
f 163//147 164//150 196//109 195//106
f 190//148 191//151 223//126 222//124
f 177//149 178//152 210//127 209//108
f 164//150 165//153 197//111 196//109
f 191//151 192//154 224//129 223//126
f 178//152 179//155 211//130 210//127
f 165//153 166//156 198//113 197//111
f 192//154 161//143 193//102 224//129
f 179//155 180//157 212//104 211//130
f 166//156 167//158 199//115 198//113
f 180//157 181//159 213//103 212//104
f 167//158 168//160 200//117 199//115
f 181//159 182//161 214//107 213//103
f 168//160 169//162 201//119 200//117
f 182//161 183//131 215//110 214//107
f 169//162 170//133 202//121 201//119
